<svg width="608" height="534" viewBox="0 0 608 534" fill="none" xmlns="http://www.w3.org/2000/svg">
<g filter="url(#filter0_d)">
<path fill-rule="evenodd" clip-rule="evenodd" d="M293.868 8.05175C345.008 8.92768 394.55 20.4298 438.515 46.5649C486.059 74.8269 528.744 111.644 552.311 161.681C578.074 216.379 593.428 279.418 575.365 337.118C557.217 395.09 508.05 437.458 456.116 468.968C407.372 498.542 350.854 506.127 293.868 507.91C235.064 509.75 169.016 517.324 124.073 479.358C79.7493 441.914 88.6393 373.335 69.6584 318.504C50.138 262.116 -4.37647 211.423 11.3985 153.874C27.2054 96.2086 92.4456 68.9756 145.576 41.5474C191.736 17.7181 241.929 7.16213 293.868 8.05175Z" fill="url(#paint0_linear)"/>
</g>
<defs>
<filter id="filter0_d" x="0.571777" y="0" width="606.649" height="533.762" filterUnits="userSpaceOnUse" color-interpolation-filters="sRGB">
<feFlood flood-opacity="0" result="BackgroundImageFix"/>
<feColorMatrix in="SourceAlpha" type="matrix" values="0 0 0 0 0 0 0 0 0 0 0 0 0 0 0 0 0 0 127 0" result="hardAlpha"/>
<feOffset dx="8" dy="8"/>
<feGaussianBlur stdDeviation="8"/>
<feColorMatrix type="matrix" values="0 0 0 0 0.454167 0 0 0 0 0.450382 0 0 0 0 0.450382 0 0 0 0.1 0"/>
<feBlend mode="normal" in2="BackgroundImageFix" result="effect1_dropShadow"/>
<feBlend mode="normal" in="SourceGraphic" in2="effect1_dropShadow" result="shape"/>
</filter>
<linearGradient id="paint0_linear" x1="8.57178" y1="258.881" x2="583.221" y2="258.881" gradientUnits="userSpaceOnUse">
<stop stop-color="#4FACFE"/>
<stop offset="1" stop-color="#00F2FE"/>
</linearGradient>
</defs>
</svg>
