<svg id="Слой_1" data-name="Слой 1" xmlns="http://www.w3.org/2000/svg" xmlns:xlink="http://www.w3.org/1999/xlink" viewBox="0 0 450 1470"><defs><style>.cls-1{fill:#eaeaf3;}.cls-2,.cls-3,.cls-4,.cls-5,.cls-6,.cls-7,.cls-8,.cls-9{fill-rule:evenodd;}.cls-2{fill:url(#Безымянный_градиент_5);}.cls-3{fill:url(#Безымянный_градиент_2);}.cls-4{fill:url(#Безымянный_градиент_3);}.cls-5{fill:url(#Безымянный_градиент_4);}.cls-6{fill:url(#Безымянный_градиент_5-2);}.cls-7{fill:url(#Безымянный_градиент_2-2);}.cls-8{fill:url(#Безымянный_градиент_3-2);}.cls-9{fill:url(#Безымянный_градиент_4-2);}</style><linearGradient id="Безымянный_градиент_5" x1="280.93" y1="119.06" x2="450" y2="119.06" gradientUnits="userSpaceOnUse"><stop offset="0" stop-color="#89f7fe"/><stop offset="1" stop-color="#66a6ff"/></linearGradient><linearGradient id="Безымянный_градиент_2" x1="138.27" y1="178.34" x2="49.26" y2="510.53" gradientUnits="userSpaceOnUse"><stop offset="0" stop-color="#00cdac"/><stop offset="1" stop-color="#8ddad5"/></linearGradient><linearGradient id="Безымянный_градиент_3" x1="0.88" y1="249.99" x2="67.24" y2="249.99" gradientUnits="userSpaceOnUse"><stop offset="0" stop-color="#4facfe"/><stop offset="1" stop-color="#00f2fe"/></linearGradient><linearGradient id="Безымянный_градиент_4" x1="405.49" y1="173.8" x2="450" y2="173.8" gradientUnits="userSpaceOnUse"><stop offset="0" stop-color="#84fab0"/><stop offset="1" stop-color="#8fd3f4"/></linearGradient><linearGradient id="Безымянный_градиент_5-2" x1="281.27" y1="784.47" y2="784.47" xlink:href="#Безымянный_градиент_5"/><linearGradient id="Безымянный_градиент_2-2" x1="66.35" y1="1156.79" x2="-10.4" y2="1443.25" xlink:href="#Безымянный_градиент_2"/><linearGradient id="Безымянный_градиент_3-2" x1="0.88" y1="1148.74" x2="108.15" y2="1148.74" xlink:href="#Безымянный_градиент_3"/><linearGradient id="Безымянный_градиент_4-2" x1="405.83" y1="713.19" y2="713.19" xlink:href="#Безымянный_градиент_4"/></defs><rect class="cls-1" x="0.88" y="0.39" width="449.12" height="1470"/><path class="cls-2" d="M450,.39v225a48.16,48.16,0,0,1-13.47,1.57c-13.22-.13-27.18-4-40.69-2.93-24.09,1.86-51.14,24.53-70.37,7.36s-5.68-54.88-13.17-82S275,101.17,282,73.9s41.71-25,60.75-42.45c8.93-8.2,15.5-19.93,22.2-31.06Z"/><path class="cls-3" d="M203,404.65c-16.24,28.61-48.66,32-75.28,44.94C106.89,459.73,86.5,465.88,64.56,472,43.19,478,21.81,492.58.88,497.57V206c8.57-10.37,18.17-20.67,28.52-28.78,14.26-11.14,29.94-18.13,46.41-15.47,29.61,4.78,42.19,48.24,65.8,70.8,24.17,23.1,61.58,28.39,73.79,62.57C227.87,330.1,220.58,373.71,203,404.65Z"/><path class="cls-4" d="M64.79,278.6c-5.66,21.32-21,36.9-37.22,48.49A72.11,72.11,0,0,1,.88,338.64V161.34a75.74,75.74,0,0,1,21.2,10.39c2.49,1.75,4.94,3.58,7.32,5.52,11.82,9.57,22.07,21.51,28.2,36.82C65.63,234.19,70.43,257.38,64.79,278.6Z"/><path class="cls-5" d="M450,109.77V237.83a57.1,57.1,0,0,1-10.05-7.4,43.66,43.66,0,0,1-3.42-3.52c-6.53-7.46-10.79-17-15.25-26.63-6.52-14.06-18.06-27.53-15.4-43.24s17.34-23.88,28.4-33.43C439.47,119.13,444.6,114,450,109.77Z"/><path class="cls-6" d="M450,661.61v247c-16.76,9.8-36.05,13.84-53.82,8.87-24.85-7-32.94-43.44-53.09-61.92-19-17.45-53.73-15.27-60.75-42.45s22.82-48.32,30.3-75.44-6.13-64.75,13.18-82,46.28,5.5,70.36,7.36c13.51,1.05,27.47-2.8,40.68-2.93A48.51,48.51,0,0,1,450,661.61Z"/><path class="cls-7" d="M104.78,1272.23c-3.81,37.21-38.39,53-56.34,82.68S26.09,1429.69.88,1446.27v-307c21.28,15.32,48.62,13.2,66,35.36,9.13,11.64,18.42,24.87,25.56,39.29C101.34,1231.8,106.9,1251.52,104.78,1272.23Z"/><path class="cls-8" d="M108.13,1148c-.25,20.06-3.63,39.49-11.27,56.74-1.4,3.13-2.85,6.21-4.4,9.21-7.6,14.86-17.1,27.74-29.3,35.43-16,10.11-34.45,16.13-51.34,9.05a45.34,45.34,0,0,1-10.94-6.67V1064.86c5.59-1.19,11.2-2.46,16.39-4.87,16.5-7.65,31.34-29,48.18-22.85s24.85,31.79,32.88,52.64C105.3,1107.88,108.39,1127.57,108.13,1148Z"/><path class="cls-9" d="M450,649.4V777c-5.28-4.14-10.3-9.18-15.38-13.57-11.06-9.55-25.71-17.58-28.4-33.43s8.88-29.18,15.4-43.24c4.46-9.6,8.72-19.16,15.24-26.63a42.15,42.15,0,0,1,3.43-3.52A57.78,57.78,0,0,1,450,649.4Z"/></svg>