<svg id="Слой_1" data-name="Слой 1" xmlns="http://www.w3.org/2000/svg" xmlns:xlink="http://www.w3.org/1999/xlink" viewBox="0 0 1920 1080"><defs><style>.cls-1{fill:#eaeaf3;}.cls-2,.cls-3,.cls-4,.cls-5{fill-rule:evenodd;}.cls-2{fill:url(#Безымянный_градиент_2);}.cls-3{fill:url(#Безымянный_градиент_3);}.cls-4{fill:url(#Безымянный_градиент_4);}.cls-5{fill:url(#Безымянный_градиент_5);}</style><linearGradient id="Безымянный_градиент_2" x1="531.2" y1="499.82" x2="350.57" y2="1173.94" gradientUnits="userSpaceOnUse"><stop offset="0" stop-color="#00cdac"/><stop offset="1" stop-color="#8ddad5"/></linearGradient><linearGradient id="Безымянный_градиент_3" y1="679.99" x2="349.69" y2="679.99" gradientUnits="userSpaceOnUse"><stop offset="0" stop-color="#4facfe"/><stop offset="1" stop-color="#00f2fe"/></linearGradient><linearGradient id="Безымянный_градиент_4" x1="1389.07" y1="293.6" x2="1920" y2="293.6" gradientUnits="userSpaceOnUse"><stop offset="0" stop-color="#89f7fe"/><stop offset="1" stop-color="#66a6ff"/></linearGradient><linearGradient id="Безымянный_градиент_5" x1="1720.96" y1="433.07" x2="1920" y2="433.07" gradientUnits="userSpaceOnUse"><stop offset="0" stop-color="#84fab0"/><stop offset="1" stop-color="#8fd3f4"/></linearGradient></defs><rect class="cls-1" width="1920" height="1080"/><path class="cls-2" d="M802.7,1080H0V861.37c11.93-13.81,22.73-28.29,31.55-43.84C73.1,744.26,66.39,648.4,124,587.81c33.81-35.58,72.93-71.82,115.74-97.12,41.41-24.49,86.26-38.75,133.1-32.32,94.86,13,135.16,131.18,210.78,192.51C661,713.68,780.88,728.08,820,821,854.12,902.2,842,1000.6,802.7,1080Z"/><path class="cls-3" d="M341.84,758.23c-18.15,58-67.32,100.34-119.25,131.85C173.85,919.65,117.33,927.24,60.34,929c-19.66.62-40.12,1.87-60.34,1.85V433.54a330.46,330.46,0,0,1,60.34-4.38C111.48,430,161,441.54,205,467.67a406.71,406.71,0,0,1,34.71,23c33.09,24.6,61.45,54.64,79.09,92.1C344.55,637.49,359.9,700.53,341.84,758.23Z"/><path class="cls-4" d="M1920,0V555.62c-39.12,6.21-81.33-2.44-123.28-5.37a292.1,292.1,0,0,0-39.56-.43c-77.16,5.07-163.85,66.71-225.43,20-61.84-46.9-18.2-149.22-42.19-223s-119.62-130.94-97-205.11c22.48-73.88,133.59-68,194.59-115.42A203,203,0,0,0,1614.59,0Z"/><path class="cls-5" d="M1920,238.94V627.2c-32.35-5.59-62.62-18.06-88.65-38.3-14-10.92-25-24.2-34.63-38.65-9.14-13.73-17-28.51-25.15-43.33-20.91-38.22-57.88-74.84-49.35-117.56,8.61-43.1,55.54-64.93,91-90.91C1846.7,273.93,1879.51,241.74,1920,238.94Z"/></svg>