<svg id="Слой_1" data-name="Слой 1" xmlns="http://www.w3.org/2000/svg" xmlns:xlink="http://www.w3.org/1999/xlink" viewBox="0 0 768 1470"><defs><style>.cls-1{fill:#eaeaf3;}.cls-2,.cls-3,.cls-4,.cls-5,.cls-6,.cls-7,.cls-8,.cls-9{fill-rule:evenodd;}.cls-2{fill:url(#Безымянный_градиент_5);}.cls-3{fill:url(#Безымянный_градиент_2);}.cls-4{fill:url(#Безымянный_градиент_3);}.cls-5{fill:url(#Безымянный_градиент_4);}.cls-6{fill:url(#Безымянный_градиент_5-2);}.cls-7{fill:url(#Безымянный_градиент_2-2);}.cls-8{fill:url(#Безымянный_градиент_3-2);}.cls-9{fill:url(#Безымянный_градиент_4-2);}</style><linearGradient id="Безымянный_градиент_5" x1="524.12" y1="118.67" x2="768" y2="118.67" gradientUnits="userSpaceOnUse"><stop offset="0" stop-color="#89f7fe"/><stop offset="1" stop-color="#66a6ff"/></linearGradient><linearGradient id="Безымянный_градиент_2" x1="197.13" y1="177.77" x2="104.58" y2="523.17" gradientUnits="userSpaceOnUse"><stop offset="0" stop-color="#00cdac"/><stop offset="1" stop-color="#8ddad5"/></linearGradient><linearGradient id="Безымянный_градиент_3" y1="249.28" x2="123.46" y2="249.28" gradientUnits="userSpaceOnUse"><stop offset="0" stop-color="#4facfe"/><stop offset="1" stop-color="#00f2fe"/></linearGradient><linearGradient id="Безымянный_градиент_4" x1="680.65" y1="173.33" x2="768" y2="173.33" gradientUnits="userSpaceOnUse"><stop offset="0" stop-color="#84fab0"/><stop offset="1" stop-color="#8fd3f4"/></linearGradient><linearGradient id="Безымянный_градиент_5-2" x1="524.55" y1="784.08" y2="784.08" xlink:href="#Безымянный_градиент_5"/><linearGradient id="Безымянный_градиент_2-2" x1="95.73" y1="1137.37" x2="10.01" y2="1457.31" xlink:href="#Безымянный_градиент_2"/><linearGradient id="Безымянный_градиент_3-2" y1="1148.35" x2="166.07" y2="1148.35" xlink:href="#Безымянный_градиент_3"/><linearGradient id="Безымянный_градиент_4-2" x1="681.08" y1="712.95" y2="712.95" xlink:href="#Безымянный_градиент_4"/></defs><rect class="cls-1" width="768" height="1470"/><path class="cls-2" d="M768,0V206.91a83.65,83.65,0,0,1-19.11,13.64c-9.16,4.73-19,6-29.24,6-16.61-.13-34.15-4-51.13-2.93-30.27,1.86-64.27,24.53-88.43,7.36s-7.14-54.88-16.55-82-46.93-48.17-38.08-75.44,52.41-25,76.34-42.45C613,22.86,621.28,11.13,629.7,0Z"/><path class="cls-3" d="M294.1,404.26c-20.4,28.61-61.14,32-94.6,44.94-26.21,10.14-51.84,16.29-79.41,22.43C79.44,480.68,38.75,509.45,0,494.83V294.07l.36-.58c16.3-27,13.67-62.21,36.26-84.5,11.63-11.48,24.88-23.15,39.29-32.13,17.91-11.14,37.62-18.13,58.32-15.47,37.21,4.78,53,48.24,82.69,70.8,30.37,23.1,77.39,28.39,92.73,62.57C325.32,329.71,316.16,373.32,294.1,404.26Z"/><path class="cls-4" d="M120.38,278.21C113.26,299.53,94,315.11,73.6,326.7,54.48,337.58,32.31,340.37,10,341c-3.27.09-6.6.23-9.95.36v-184c3.3-.17,6.61-.23,10-.18,20.06.32,39.5,4.55,56.75,14.16,3.13,1.75,6.21,3.58,9.21,5.52,14.85,9.57,27.73,21.51,35.43,36.82C121.44,233.8,127.47,257,120.38,278.21Z"/><path class="cls-5" d="M768,102V245.4l-6.22-.83C747.94,242.78,735,238.08,724,230a51.36,51.36,0,0,1-4.3-3.52c-8.2-7.46-13.56-17-19.16-26.63-8.19-14.06-22.7-27.53-19.35-43.24s21.79-23.88,35.69-33.43,27.64-22.37,44.95-22A34.24,34.24,0,0,1,768,102Z"/><path class="cls-6" d="M768,678.94V886.86c-1.41,1.45-2.9,2.86-4.48,4.21-24.9,21.23-61.8,33.33-94.57,26-31.23-7-41.4-43.44-66.72-61.92-23.93-17.45-67.52-15.27-76.34-42.45S554.56,764.42,564,737.3s-7.7-64.75,16.56-82,58.16,5.5,88.43,7.36c17,1.05,34.52-2.8,51.12-2.93,10.22-.08,20.08,1.24,29.25,6A83.56,83.56,0,0,1,768,678.94Z"/><path class="cls-7" d="M161.84,1271.84c-4.79,37.21-48.25,53-70.8,82.68-23.1,30.38-28.4,77.4-62.58,92.73A90.4,90.4,0,0,1,0,1454.63V1111.72c9.16,10,18.71,19.58,29.74,26.25,27,16.3,62.21,13.67,84.49,36.25,11.48,11.64,23.15,24.87,32.13,39.29C157.51,1231.41,164.5,1251.13,161.84,1271.84Z"/><path class="cls-8" d="M166.05,1147.56c-.32,20.06-4.56,39.49-14.17,56.74-1.75,3.13-3.58,6.21-5.52,9.21-9.56,14.86-21.5,27.74-36.82,35.43-20.11,10.11-43.3,16.13-64.52,9-19.26-6.43-33.84-22.79-45-40.91V1074.16c14.3-9.77,34.88-8.28,51.86-14.56,20.74-7.65,39.39-29,60.55-22.85s31.23,31.79,41.32,52.64C162.49,1107.49,166.37,1127.18,166.05,1147.56Z"/><path class="cls-9" d="M768,640.9V784.34a34.32,34.32,0,0,1-5.79.64c-17.31.42-31-12.35-45-22S685,745.45,681.57,729.6s11.15-29.18,19.35-43.24c5.6-9.6,11-19.16,19.15-26.63a50,50,0,0,1,4.31-3.52c11-8,24-12.74,37.83-14.53Z"/></svg>