<svg width="2470" height="1530" viewBox="0 0 2470 1530" fill="none" xmlns="http://www.w3.org/2000/svg">
<g filter="url(#filter0_d)">
<path fill-rule="evenodd" clip-rule="evenodd" d="M2032.67 13.7889C2116.2 -6.02795 2210.26 26.8583 2273.73 84.595C2334.67 140.039 2341.88 229.531 2358.45 310.17C2373.11 381.529 2385.58 453.745 2363.86 523.288C2341.96 593.411 2301.95 661.891 2237.53 697.358C2176.18 731.131 2102.57 701.023 2032.67 705.615C1955.5 710.683 1868.82 772.32 1807.24 725.62C1745.4 678.724 1789.03 576.404 1765.04 502.665C1741.06 428.943 1645.42 371.719 1667.99 297.554C1690.47 223.674 1801.58 229.597 1862.58 182.131C1927.13 131.905 1953.05 32.6768 2032.67 13.7889Z" fill="url(#paint0_linear)"/>
</g>
<g filter="url(#filter1_d)">
<path fill-rule="evenodd" clip-rule="evenodd" d="M141.2 1160.82C142.441 1047.75 274.426 992.63 329.418 895.654C370.97 822.377 364.26 726.524 421.834 665.929C488.338 595.935 575.401 523.416 670.674 536.489C765.532 549.506 805.832 667.672 881.45 728.998C958.888 791.799 1078.75 806.198 1117.84 899.13C1157.8 994.15 1134.45 1112.73 1078.2 1196.85C1026.19 1274.63 922.359 1283.8 837.049 1319.03C770.247 1346.61 704.915 1363.33 634.632 1380.02C529.22 1405.05 423.727 1485.53 323.431 1440.98C220.838 1395.4 139.945 1275.1 141.2 1160.82Z" fill="url(#paint1_linear)"/>
</g>
<g filter="url(#filter2_d)">
<path fill-rule="evenodd" clip-rule="evenodd" d="M353.868 525.052C405.008 525.928 454.55 537.43 498.515 563.565C546.059 591.827 588.744 628.644 612.311 678.681C638.074 733.379 653.428 796.418 635.365 854.118C617.217 912.09 568.05 954.458 516.116 985.968C467.372 1015.54 410.854 1023.13 353.868 1024.91C295.064 1026.75 229.016 1034.32 184.073 996.358C139.749 958.914 148.639 890.335 129.658 835.504C110.138 779.116 55.6235 728.423 71.3985 670.874C87.2054 613.209 152.446 585.976 205.576 558.547C251.736 534.718 301.929 524.162 353.868 525.052Z" fill="url(#paint2_linear)"/>
</g>
<g filter="url(#filter3_d)">
<path fill-rule="evenodd" clip-rule="evenodd" d="M2270.4 373.027C2314.23 374.158 2346.9 410.647 2380.76 438.507C2412.44 464.571 2450.44 488.929 2459.8 528.871C2468.92 567.851 2440.51 603.594 2428.34 641.731C2416.08 680.141 2420.34 728.227 2388.33 752.739C2356.22 777.325 2310.46 768.2 2270.4 762.671C2235.12 757.802 2202.07 745.013 2173.96 723.15C2146.59 701.867 2130.81 671.59 2114.17 641.173C2093.27 602.952 2056.29 566.336 2064.83 523.616C2073.44 480.517 2120.37 458.679 2155.82 432.707C2191.43 406.621 2226.27 371.889 2270.4 373.027Z" fill="url(#paint3_linear)"/>
</g>
<defs>
<filter id="filter0_d" x="1640.57" y="0" width="743" height="767" filterUnits="userSpaceOnUse" color-interpolation-filters="sRGB">
<feFlood flood-opacity="0" result="BackgroundImageFix"/>
<feColorMatrix in="SourceAlpha" type="matrix" values="0 0 0 0 0 0 0 0 0 0 0 0 0 0 0 0 0 0 127 0" result="hardAlpha"/>
<feOffset dx="-8" dy="8"/>
<feGaussianBlur stdDeviation="8"/>
<feColorMatrix type="matrix" values="0 0 0 0 0.454167 0 0 0 0 0.450382 0 0 0 0 0.450382 0 0 0 0.1 0"/>
<feBlend mode="normal" in2="BackgroundImageFix" result="effect1_dropShadow"/>
<feBlend mode="normal" in="SourceGraphic" in2="effect1_dropShadow" result="shape"/>
</filter>
<filter id="filter1_d" x="0" y="427.521" width="1235.71" height="1102" filterUnits="userSpaceOnUse" color-interpolation-filters="sRGB">
<feFlood flood-opacity="0" result="BackgroundImageFix"/>
<feColorMatrix in="SourceAlpha" type="matrix" values="0 0 0 0 0 0 0 0 0 0 0 0 0 0 0 0 0 0 127 0" result="hardAlpha"/>
<feOffset dx="8" dy="8"/>
<feGaussianBlur stdDeviation="8"/>
<feColorMatrix type="matrix" values="0 0 0 0 0.454167 0 0 0 0 0.450382 0 0 0 0 0.450382 0 0 0 0.1 0"/>
<feBlend mode="normal" in2="BackgroundImageFix" result="effect1_dropShadow"/>
<feBlend mode="normal" in="SourceGraphic" in2="effect1_dropShadow" result="shape"/>
</filter>
<filter id="filter2_d" x="60.5718" y="517" width="606.649" height="533.762" filterUnits="userSpaceOnUse" color-interpolation-filters="sRGB">
<feFlood flood-opacity="0" result="BackgroundImageFix"/>
<feColorMatrix in="SourceAlpha" type="matrix" values="0 0 0 0 0 0 0 0 0 0 0 0 0 0 0 0 0 0 127 0" result="hardAlpha"/>
<feOffset dx="8" dy="8"/>
<feGaussianBlur stdDeviation="8"/>
<feColorMatrix type="matrix" values="0 0 0 0 0.454167 0 0 0 0 0.450382 0 0 0 0 0.450382 0 0 0 0.1 0"/>
<feBlend mode="normal" in2="BackgroundImageFix" result="effect1_dropShadow"/>
<feBlend mode="normal" in="SourceGraphic" in2="effect1_dropShadow" result="shape"/>
</filter>
<filter id="filter3_d" x="2039.57" y="365" width="430" height="428" filterUnits="userSpaceOnUse" color-interpolation-filters="sRGB">
<feFlood flood-opacity="0" result="BackgroundImageFix"/>
<feColorMatrix in="SourceAlpha" type="matrix" values="0 0 0 0 0 0 0 0 0 0 0 0 0 0 0 0 0 0 127 0" result="hardAlpha"/>
<feOffset dx="-8" dy="8"/>
<feGaussianBlur stdDeviation="8"/>
<feColorMatrix type="matrix" values="0 0 0 0 0.454167 0 0 0 0 0.450382 0 0 0 0 0.450382 0 0 0 0.1 0"/>
<feBlend mode="normal" in2="BackgroundImageFix" result="effect1_dropShadow"/>
<feBlend mode="normal" in="SourceGraphic" in2="effect1_dropShadow" result="shape"/>
</filter>
<linearGradient id="paint0_linear" x1="1664.57" y1="375.5" x2="2375.57" y2="375.5" gradientUnits="userSpaceOnUse">
<stop stop-color="#89F7FE"/>
<stop offset="1" stop-color="#66A6FF"/>
</linearGradient>
<linearGradient id="paint1_linear" x1="717.742" y1="1373.17" x2="501.966" y2="567.879" gradientUnits="userSpaceOnUse">
<stop stop-color="#00CDAC"/>
<stop offset="1" stop-color="#8DDAD5"/>
</linearGradient>
<linearGradient id="paint2_linear" x1="68.5718" y1="775.881" x2="643.221" y2="775.881" gradientUnits="userSpaceOnUse">
<stop stop-color="#4FACFE"/>
<stop offset="1" stop-color="#00F2FE"/>
</linearGradient>
<linearGradient id="paint3_linear" x1="2063.57" y1="571" x2="2461.57" y2="571" gradientUnits="userSpaceOnUse">
<stop stop-color="#84FAB0"/>
<stop offset="1" stop-color="#8FD3F4"/>
</linearGradient>
</defs>
</svg>
