<svg width="12" height="12" viewBox="0 0 12 12" fill="white" xmlns="http://www.w3.org/2000/svg">
<path d="M0.990566 2.51887C0.424528 2.51887 0 2.09434 0 1.52831C0 0.962268 0.424528 0.509438 0.990566 0.509438H10.9811C11.5472 0.509438 12 0.962268 12 1.52831C12 2.09434 11.5472 2.51887 10.9811 2.51887H0.990566Z"/>
<path d="M10.9811 4.98114C11.5472 4.98114 12 5.43397 12 6.00001C12 6.56605 11.5472 6.99057 10.9811 6.99057H0.990566C0.424528 6.99057 0 6.56605 0 6.00001C0 5.43397 0.424528 4.98114 0.990566 4.98114H10.9811Z"/>
<path d="M10.9811 9.48111C11.5472 9.48111 12 9.90563 12 10.4717C12 11.0377 11.5472 11.4905 10.9811 11.4905H0.990566C0.424528 11.4905 0 11.0377 0 10.4717C0 9.90563 0.424528 9.48111 0.990566 9.48111H10.9811Z"/>
</svg>
