<svg width="280" height="32" viewBox="0 0 280 32" fill="none" xmlns="http://www.w3.org/2000/svg">
<path d="M26.7857 3.70492H0V6.60696H26.7857V3.70492Z" fill="black"/>
<path d="M6.78571 7.33251H0V10.2346H6.78571V7.33251Z" fill="black"/>
<path d="M6.78571 10.9601H0V13.8622H6.78571V10.9601Z" fill="black"/>
<path d="M6.78571 14.5877H0V17.4897H6.78571V14.5877Z" fill="black"/>
<path d="M6.78571 18.2152H0V21.1173H6.78571V18.2152Z" fill="black"/>
<path d="M6.78571 21.8428H0V24.7449H6.78571V21.8428Z" fill="black"/>
<path d="M26.7856 10.9601H11.0713V13.8622H26.7856V10.9601Z" fill="black"/>
<path d="M26.7856 14.5877H11.0713V17.4897H26.7856V14.5877Z" fill="black"/>
<path d="M26.7857 18.2152H20V21.1173H26.7857V18.2152Z" fill="black"/>
<path d="M26.7857 21.8428H20V24.7449H26.7857V21.8428Z" fill="black"/>
<path d="M26.7857 25.4704H0V28.3724H26.7857V25.4704Z" fill="black"/>
<path d="M26.7857 0.0769272H0V2.97895H26.7857V0.0769272Z" fill="black"/>
<path d="M26.7857 29.098H0V32H26.7857V29.098Z" fill="black"/>
<path d="M59.6429 3.70492H35V6.60696H59.6429V3.70492Z" fill="black"/>
<path d="M41.7857 7.33251H35V10.2346H41.7857V7.33251Z" fill="black"/>
<path d="M59.6429 10.9601H35V13.8622H59.6429V10.9601Z" fill="black"/>
<path d="M59.6429 14.5877H35V17.4897H59.6429V14.5877Z" fill="black"/>
<path d="M41.7857 18.2152H35V21.1173H41.7857V18.2152Z" fill="black"/>
<path d="M41.7857 21.8428H35V24.7449H41.7857V21.8428Z" fill="black"/>
<path d="M59.6429 25.4704H35V28.3724H59.6429V25.4704Z" fill="black"/>
<path d="M59.6429 0.0769272H35V2.97895H59.6429V0.0769272Z" fill="black"/>
<path d="M59.6429 29.098H35V32H59.6429V29.098Z" fill="black"/>
<path d="M70.3574 3.70492H78.9288L80.7145 6.60696H72.5003L70.3574 3.70492Z" fill="black"/>
<path d="M73.2148 7.33251H81.4291L83.572 10.2346H75.0006L73.2148 7.33251Z" fill="black"/>
<path d="M90.7151 0.0769272H98.9294L97.1437 2.97895H88.5723L90.7151 0.0769272Z" fill="black"/>
<path d="M88.2141 3.70492H96.4284L94.6427 6.60696H86.0713L88.2141 3.70492Z" fill="black"/>
<path d="M85.357 7.33251H93.9284L91.7856 10.2346H83.5713L85.357 7.33251Z" fill="black"/>
<path d="M75.3574 10.9601H91.4289L89.286 13.8622H77.5003L75.3574 10.9601Z" fill="black"/>
<path d="M78.2139 14.5877H88.571L87.8567 16.0387V16.4015L88.571 17.4897H78.2139L78.9282 16.0387L78.2139 14.5877Z" fill="black"/>
<path d="M77.5003 18.2152H89.286L91.4289 21.1173H75.3574L77.5003 18.2152Z" fill="black"/>
<path d="M75.0003 21.8428H83.2145L81.4288 24.7449H72.8574L75.0003 21.8428Z" fill="black"/>
<path d="M83.5713 21.8428L85.357 24.7449H93.9284L92.1427 21.8428H83.5713Z" fill="black"/>
<path d="M72.1431 25.4704H81.0717L78.9288 28.3724H70.3574L72.1431 25.4704Z" fill="black"/>
<path d="M86.0713 25.4704H94.6427L96.7856 28.3724H87.857L86.0713 25.4704Z" fill="black"/>
<path d="M69.6431 29.098H78.2146L76.4289 32H67.8574L69.6431 29.098Z" fill="black"/>
<path d="M88.5723 29.098H97.1437L99.2866 32H90.358L88.5723 29.098Z" fill="black"/>
<path d="M67.8574 0.0769272H76.4289L78.2146 2.97895H69.6431L67.8574 0.0769272Z" fill="black"/>
<path d="M118.214 0.0769272H126.785L127.857 2.97895H117.143L118.214 0.0769272Z" fill="black"/>
<path d="M116.785 3.70492H128.214L129.285 6.60696H115.714L116.785 3.70492Z" fill="black"/>
<path d="M115.357 7.33251H129.642L130.714 10.2346H114.285L115.357 7.33251Z" fill="black"/>
<path d="M113.929 10.9601H121.786L120.715 13.8622H112.857L113.929 10.9601Z" fill="black"/>
<path d="M123.214 10.9601H131.071L132.142 13.8622H124.285L123.214 10.9601Z" fill="black"/>
<path d="M112.5 14.5877H120.357L118.929 17.4897H111.429L112.5 14.5877Z" fill="black"/>
<path d="M124.643 14.5877H132.5L133.571 17.4897H126.071L124.643 14.5877Z" fill="black"/>
<path d="M111.071 18.2152H133.929L135 21.1173H110L111.071 18.2152Z" fill="black"/>
<path d="M109.643 21.8428H135.357L136.428 24.7449H108.571L109.643 21.8428Z" fill="black"/>
<path d="M108.214 25.4704H115.714L114.643 28.3724H107.143L108.214 25.4704Z" fill="black"/>
<path d="M106.785 29.098H114.285L113.214 32H105.714L106.785 29.098Z" fill="black"/>
<path d="M129.285 25.4704H136.785L137.857 28.3724H130.357L129.285 25.4704Z" fill="black"/>
<path d="M130.714 29.098H138.214L139.285 32H131.785L130.714 29.098Z" fill="black"/>
<path d="M172.857 0.0769272H146.071V2.97895H172.857V0.0769272Z" fill="black"/>
<path d="M172.857 3.70492H146.071V6.60696H172.857V3.70492Z" fill="black"/>
<path d="M172.857 29.098H146.071V32H172.857V29.098Z" fill="black"/>
<path d="M152.857 7.33251H146.071V10.2346H152.857V7.33251Z" fill="black"/>
<path d="M172.857 7.33251H166.071V10.2346H172.857V7.33251Z" fill="black"/>
<path d="M170.686 13.8622H146.071V10.9601H172.857C172.857 12.7739 172.5 13.8622 170.686 13.8622Z" fill="black"/>
<path d="M170.686 14.5877H146.071V17.4897H172.857C172.857 15.6759 172.5 14.5877 170.686 14.5877Z" fill="black"/>
<path d="M152.857 18.2152H146.071V21.1173H152.857V18.2152Z" fill="black"/>
<path d="M172.857 18.2152H166.071V21.1173H172.857V18.2152Z" fill="black"/>
<path d="M152.857 21.8428H146.071V24.7449H152.857V21.8428Z" fill="black"/>
<path d="M172.857 21.8428H166.071V24.7449H172.857V21.8428Z" fill="black"/>
<path d="M172.857 25.4704H146.071V28.3724H172.857V25.4704Z" fill="black"/>
<path d="M181.071 0.0769272H189.643L191.428 2.97895H182.857L181.071 0.0769272Z" fill="black"/>
<path d="M183.571 3.70492H192.143L194.286 6.60696H185.357L183.571 3.70492Z" fill="black"/>
<path d="M186.071 7.33251H195L196.786 10.2346H188.214L186.071 7.33251Z" fill="black"/>
<path d="M203.572 0.0769272H212.143L210.358 2.97895H201.786L203.572 0.0769272Z" fill="black"/>
<path d="M201.428 3.70492H209.642H209.999L207.857 6.60696H199.285L201.428 3.70492Z" fill="black"/>
<path d="M198.571 7.33251H207.142L204.999 10.2346H196.785L198.571 7.33251Z" fill="black"/>
<path d="M188.929 10.9601H204.286L202.5 13.8622H190.714L188.929 10.9601Z" fill="black"/>
<path d="M191.428 14.5877H202.142L200.356 17.4897H192.856L191.428 14.5877Z" fill="black"/>
<path d="M200 18.2152H193.214V21.1173H200V18.2152Z" fill="black"/>
<path d="M200 21.8428H193.214V24.7449H200V21.8428Z" fill="black"/>
<path d="M200 25.4704H193.214V28.3724H200V25.4704Z" fill="black"/>
<path d="M200 29.098H193.214V32H200V29.098Z" fill="black"/>
<path d="M247.142 0.0769272H220.356V2.97895H247.142V0.0769272Z" fill="black"/>
<path d="M247.142 3.70492H220.356V6.60696H247.142V3.70492Z" fill="black"/>
<path d="M237.499 7.33251H230.713V10.2346H237.499V7.33251Z" fill="black"/>
<path d="M237.499 10.9601H230.713V13.8622H237.499V10.9601Z" fill="black"/>
<path d="M237.499 14.5877H230.713V17.4897H237.499V14.5877Z" fill="black"/>
<path d="M237.499 18.2152H230.713V21.1173H237.499V18.2152Z" fill="black"/>
<path d="M237.499 21.8428H230.713V24.7449H237.499V21.8428Z" fill="black"/>
<path d="M237.499 25.4704H230.713V28.3724H237.499V25.4704Z" fill="black"/>
<path d="M237.499 29.098H230.713V32H237.499V29.098Z" fill="black"/>
<path d="M279.999 3.70492H255.356V6.60696H279.999V3.70492Z" fill="black"/>
<path d="M262.142 7.33251H255.356V10.2346H262.142V7.33251Z" fill="black"/>
<path d="M279.999 10.9601H255.356V13.8622H279.999V10.9601Z" fill="black"/>
<path d="M279.999 14.5877H255.356V17.4897H279.999V14.5877Z" fill="black"/>
<path d="M262.142 18.2152H255.356V21.1173H262.142V18.2152Z" fill="black"/>
<path d="M262.142 21.8428H255.356V24.7449H262.142V21.8428Z" fill="black"/>
<path d="M279.999 25.4704H255.356V28.3724H279.999V25.4704Z" fill="black"/>
<path d="M279.999 0.0769272H255.356V2.97895H279.999V0.0769272Z" fill="black"/>
<path d="M279.999 29.098H255.356V32H279.999V29.098Z" fill="black"/>
</svg>
