<svg width="20" height="18" viewBox="0 0 20 18" fill="none" xmlns="http://www.w3.org/2000/svg">
<path d="M18.1984 0.395521L1.14711 7.49232C1.14711 7.49232 0.340947 7.78536 0.403347 8.32584C0.467427 8.86728 1.12527 9.11496 1.12527 9.11496L5.41575 10.6466C5.41575 10.6466 6.71079 15.1519 6.96567 16.0092C7.22055 16.8641 7.42503 16.8842 7.42503 16.8842C7.66239 16.9937 7.87815 16.8194 7.87815 16.8194L10.6501 14.1389L14.9704 17.653C16.1389 18.1937 16.5642 17.0671 16.5642 17.0671L19.6 0.824401C19.6 -0.257519 18.1984 0.395521 18.1984 0.395521ZM15.1797 15.7608L10.5577 12.0024L9.12351 13.3889L9.43887 10.439L15.5997 4.60008L7.20183 9.58584L3.47679 8.25624L17.6889 2.34072L15.1797 15.7608Z" fill="#19B7BB"/>
</svg>
