<svg width="12" height="12" viewBox="0 0 12 12" fill="none" xmlns="http://www.w3.org/2000/svg">
<path d="M11.731 9.4835L9.87776 7.63008C9.50863 7.26244 8.89735 7.27361 8.51537 7.65573L7.58171 8.58918C7.52273 8.55667 7.46167 8.52271 7.39748 8.48668C6.80789 8.16 6.00093 7.71223 5.15177 6.86246C4.3001 6.01089 3.85192 5.20269 3.52423 4.61271C3.48965 4.55021 3.45652 4.48995 3.42381 4.43272L4.05043 3.80703L4.3585 3.49858C4.74107 3.11591 4.75162 2.5048 4.38335 2.13609L2.53014 0.282466C2.16188 -0.0857283 1.55032 -0.0745583 1.16775 0.308116L0.645455 0.833413L0.659728 0.847582C0.484594 1.07105 0.338247 1.32879 0.229341 1.60672C0.128949 1.87129 0.0664456 2.12375 0.0378657 2.37673C-0.206839 4.40538 0.720197 6.25942 3.23605 8.77531C6.71373 12.2527 9.51628 11.99 9.63719 11.9772C9.90051 11.9457 10.1529 11.8828 10.4093 11.7832C10.6849 11.6756 10.9424 11.5295 11.1657 11.3547L11.1772 11.3648L11.7063 10.8467C12.0881 10.4641 12.0991 9.8528 11.731 9.4835Z" fill="#19B7BB"/>
</svg>
